<svg xmlns="http://www.w3.org/2000/svg" viewBox="0 0 500 500"><g id="freepik--Floor--inject-183"><ellipse id="freepik--floor--inject-183" cx="249.99" cy="336.36" rx="238.75" ry="137.84" style="fill:#f5f5f5"></ellipse></g><g id="freepik--Shadows--inject-183"><ellipse id="freepik--Shadow--inject-183" cx="385.32" cy="400.95" rx="46.39" ry="26.79" style="fill:#e0e0e0"></ellipse><path id="freepik--shadow--inject-183" d="M45.73,334.76l123.86,71.5a11.27,11.27,0,0,0,10.21,0L413,271.61c2.82-1.63,2.82-4.27,0-5.9L289.18,194.2a11.33,11.33,0,0,0-10.21,0L45.73,328.86C42.91,330.49,42.91,333.13,45.73,334.76Z" style="fill:#e0e0e0"></path></g><g id="freepik--Clouds--inject-183"><g id="freepik--clouds--inject-183"><path d="M94.79,67.79l-7,4a9.55,9.55,0,0,0,.06-1.06V68.42c0-4.17-2.53-6.09-5.66-4.28a10.44,10.44,0,0,0-3.38,3.45c-.51-5.29-4.07-7.56-8.4-5.07-4.68,2.71-8.47,9.95-8.47,16.19v3.51a10.89,10.89,0,0,0,.72,4.12L56.83,89.7a7.51,7.51,0,0,0-3.14,6c0,2.32,1.4,3.38,3.14,2.38l38-21.92a7.53,7.53,0,0,0,3.14-6C97.93,67.85,96.52,66.78,94.79,67.79Z" style="fill:#ebebeb"></path><path d="M139.8,80l-5.29,3a7.31,7.31,0,0,0,.05-.8V80.5c0-3.15-1.92-4.59-4.28-3.23a7.81,7.81,0,0,0-2.54,2.6c-.39-4-3.08-5.7-6.35-3.82-3.53,2-6.39,7.51-6.39,12.22v2.64a8.43,8.43,0,0,0,.54,3.12l-4.39,2.53a5.69,5.69,0,0,0-2.37,4.53c0,1.75,1.06,2.55,2.37,1.79L139.8,86.34a5.66,5.66,0,0,0,2.37-4.53C142.17,80.07,141.11,79.27,139.8,80Z" style="fill:#ebebeb"></path></g></g><g id="freepik--Plants--inject-183"><g id="freepik--plants--inject-183"><path d="M415.73,370.78s-.49-14,4.79-25.76,13.7-19.82,22.4-21.83,17,5,8.42,12-24.47,15.12-29.08,37.06Z" style="fill:#92E3A9"></path><g style="opacity:0.15"><path d="M415.73,370.78s-.49-14,4.79-25.76,13.7-19.82,22.4-21.83,17,5,8.42,12-24.47,15.12-29.08,37.06Z"></path></g><path d="M417.78,366.81h-.1a.48.48,0,0,1-.35-.58c5.88-24.25,22.14-36.43,29.92-39.48a.48.48,0,0,1,.34.89c-7.61,3-23.55,14.95-29.34,38.82A.46.46,0,0,1,417.78,366.81Z" style="fill:#fff"></path><path d="M456.23,361.67c-.72,1.73-2.57,2.67-4.29,3.42s-3.59,1.55-4.48,3.19c-1.81,3.32,1.42,7.84-.53,11.08a5.86,5.86,0,0,1-3.94,2.42c-1.29.28-2.61.31-3.92.46a16.48,16.48,0,0,1-1.87-.1,8.51,8.51,0,0,0-5.4.72c-2.56,1.53-3.27,4.83-4.78,7.4A12.37,12.37,0,0,1,418.4,396c-2.94.46-7.37-.08-8.17-1.36-.6-1,1-4,1-5.16a47,47,0,0,1,.89-8.78,16.84,16.84,0,0,0,.45-4c-.05-1.51-.09-3-.12-4.52s-.44-2.9.1-4.56a17.07,17.07,0,0,1,2.43-4.35q1.43-2,2.89-4a23.57,23.57,0,0,1,3.82-4.33,12.32,12.32,0,0,1,9.42-2.64c2.75.38,5.47,1.85,8.29,1.65s5.42-1,8.23-.88a9.79,9.79,0,0,1,7.71,3.76A5.21,5.21,0,0,1,456.23,361.67Z" style="fill:#92E3A9"></path><path d="M412.46,387.25h0a.42.42,0,0,1-.31-.51c6.15-25.8,33.05-30.21,39.38-29.92a.42.42,0,0,1,.4.44.42.42,0,0,1-.44.4c-6.19-.28-32.5,4-38.52,29.27A.42.42,0,0,1,412.46,387.25Z" style="fill:#fff"></path><path d="M442.11,373.48a.39.39,0,0,1-.22-.11,22.44,22.44,0,0,0-18.51-4.69.42.42,0,1,1-.14-.83,23.28,23.28,0,0,1,19.23,4.91.42.42,0,0,1-.36.72Z" style="fill:#fff"></path></g><g id="freepik--plants--inject-183"><path d="M63.79,303.3C66.11,289,62.27,258.53,43,260c-4.2.3-8.52,4.54-4,10.54,3.66,4.92,7.51,9.71,10.51,15.08,3.15,5.65,3,12.25,4.12,18.59.48,2.66,1.48,5.88,4.14,6.38a4.53,4.53,0,0,0,4.33-2.09,11.68,11.68,0,0,0,1.63-4.77Z" style="fill:#92E3A9"></path><path d="M63.79,303.3C66.11,289,62.27,258.53,43,260c-4.2.3-8.52,4.54-4,10.54,3.66,4.92,7.51,9.71,10.51,15.08,3.15,5.65,3,12.25,4.12,18.59.48,2.66,1.48,5.88,4.14,6.38a4.53,4.53,0,0,0,4.33-2.09,11.68,11.68,0,0,0,1.63-4.77Z" style="opacity:0.15"></path><path d="M57.75,302.11a.5.5,0,0,1-.34-.62c4.64-16.88-8.16-35.13-11.78-38a.5.5,0,0,1-.09-.7.51.51,0,0,1,.7-.09c3.73,2.92,16.92,21.6,12.13,39a.5.5,0,0,1-.62.35Z" style="fill:#fff"></path><path d="M56,292c0-.26,0-.53,0-.8a9,9,0,0,0-2-5.49,9.27,9.27,0,0,0-1.69-1.5,17.41,17.41,0,0,0-7.54-3,23.3,23.3,0,0,1-3.63-.6c-3.39-1.1-6-4.39-8.93-6.35C29,272,20.89,270,18.18,274.32c-2,3.12,4,7.22,8.09,11.36s6.32,8.27,3.4,12.24c-2.51,3.4-3.15,6.86,2.16,10.56,4.72,3.28,11.45,2.47,11.63,8.29.1,3.32,3.74,8.34,9.26,7.47,1.88-.3,4.12-2.53,5.25-3.95a14.23,14.23,0,0,0,2.58-5.44,20.62,20.62,0,0,0,.38-8.6,11.76,11.76,0,0,0-1.35-4.08c-.81-1.31-2.34-2.29-3.51-3.31a2.08,2.08,0,0,1-.45-.49,1.94,1.94,0,0,1-.1-1.24A38.12,38.12,0,0,0,56,292Z" style="fill:#92E3A9"></path><path d="M54.44,315.55a.49.49,0,0,1-.36-.45c-.82-16-21.14-35.68-29.49-39.69a.5.5,0,0,1-.23-.67.49.49,0,0,1,.66-.23c8.52,4.08,29.22,24.15,30.06,40.54a.49.49,0,0,1-.47.52A.47.47,0,0,1,54.44,315.55Z" style="fill:#fff"></path><path d="M35.19,301.3a.53.53,0,0,1-.32-.3.51.51,0,0,1,.28-.65A25.3,25.3,0,0,1,49.74,300h0a.5.5,0,0,1,.34.61.5.5,0,0,1-.61.35,24.71,24.71,0,0,0-14,.36A.53.53,0,0,1,35.19,301.3Z" style="fill:#fff"></path></g></g><g id="freepik--Device--inject-183"><g id="freepik--Mobile--inject-183"><g id="freepik--device--inject-183"><path d="M54,310.09c-1.73,1.34-1.54,3.25.56,4.46l115.32,66.59a9.29,9.29,0,0,0,8.39,0l220.4-127.24c2.13-1.23,2.3-3.17.49-4.51a9.34,9.34,0,0,1,3.7,6.94v5.54a9.23,9.23,0,0,1-4.2,7.27L178.29,396.37a9.28,9.28,0,0,1-8.4,0L54.57,329.79a9.2,9.2,0,0,1-4.19-7.26l0-5.56A9.39,9.39,0,0,1,54,310.09Z" style="fill:#92E3A9"></path><path d="M54,310.09c-1.73,1.34-1.54,3.25.56,4.46l115.32,66.59a9.29,9.29,0,0,0,8.39,0l220.4-127.24c2.13-1.23,2.3-3.17.49-4.51a9.34,9.34,0,0,1,3.7,6.94v5.54a9.23,9.23,0,0,1-4.2,7.27L178.29,396.37a9.28,9.28,0,0,1-8.4,0L54.57,329.79a9.2,9.2,0,0,1-4.19-7.26l0-5.56A9.39,9.39,0,0,1,54,310.09Z" style="opacity:0.5"></path><path d="M54.56,314.55l115.32,66.59a9.29,9.29,0,0,0,8.39,0l220.4-127.24c2.31-1.34,2.31-3.51,0-4.84L283.35,182.46a9.29,9.29,0,0,0-8.39,0L54.56,309.71C52.25,311.05,52.25,313.22,54.56,314.55ZM257.22,199.68c2-1.15,4-.48,6,.67l104.86,60.54c2,1.14,2,3,0,4.15L196.52,364.11a8,8,0,0,1-7.2,0L84.47,303.57c-2-1.15-2-3,0-4.15Z" style="fill:#92E3A9"></path><path d="M54.56,314.55l115.32,66.59a9.29,9.29,0,0,0,8.39,0l220.4-127.24c2.31-1.34,2.31-3.51,0-4.84L283.35,182.46a9.29,9.29,0,0,0-8.39,0L54.56,309.71C52.25,311.05,52.25,313.22,54.56,314.55ZM257.22,199.68c2-1.15,4-.48,6,.67l104.86,60.54c2,1.14,2,3,0,4.15L196.52,364.11a8,8,0,0,1-7.2,0L84.47,303.57c-2-1.15-2-3,0-4.15Z" style="opacity:0.30000000000000004"></path><path d="M399.16,249.38a9.34,9.34,0,0,1,3.7,6.94v5.54a9.25,9.25,0,0,1-4.2,7.27L178.29,396.37a8.71,8.71,0,0,1-4.21,1V382.13a8.51,8.51,0,0,0,4.19-1l220.4-127.24C400.8,252.66,401,250.72,399.16,249.38Z" style="fill:#92E3A9"></path><path d="M399.16,249.38a9.34,9.34,0,0,1,3.7,6.94v5.54a9.25,9.25,0,0,1-4.2,7.27L178.29,396.37a8.71,8.71,0,0,1-4.21,1V382.13a8.51,8.51,0,0,0,4.19-1l220.4-127.24C400.8,252.66,401,250.72,399.16,249.38Z" style="opacity:0.6000000000000001"></path><path d="M330,222.3c-1.56-.9-1.56-2.35,0-3.25a6.19,6.19,0,0,1,5.62,0c1.55.9,1.55,2.35,0,3.25A6.25,6.25,0,0,1,330,222.3Z"></path><path d="M123.12,346.14a14.07,14.07,0,0,1-6.87-1.64h0c-1.93-1.12-3-2.63-3-4.26s1.06-3.14,3-4.25A15.19,15.19,0,0,1,130,336c1.93,1.11,3,2.62,3,4.25s-1.06,3.14-3,4.26A14.07,14.07,0,0,1,123.12,346.14Zm0-10.81a13,13,0,0,0-6.37,1.52c-1.61.93-2.49,2.13-2.49,3.39s.88,2.46,2.49,3.39h0a14.09,14.09,0,0,0,12.74,0c1.61-.93,2.49-2.13,2.49-3.39s-.88-2.46-2.49-3.39A13.07,13.07,0,0,0,123.12,335.33Z" style="fill:#e6e6e6"></path><path d="M332.72,233.07,311,220.53c-1.29-.74-1.36-1.92-.14-2.62a5,5,0,0,1,4.54.08l21.71,12.54c1.3.74,1.36,1.92.15,2.62A5.07,5.07,0,0,1,332.72,233.07Z"></path><path d="M257.22,199.68c2-1.15,4-.48,6,.67l104.86,60.54c2,1.14,2,3,0,4.15L196.52,364.11a8,8,0,0,1-7.2,0L84.47,303.57c-2-1.15-2-3,0-4.15Z" style="fill:#fafafa"></path></g></g></g><g id="freepik--character-bubbles--inject-183"><g id="freepik--character-bubble--inject-183"><g id="freepik--speach-bubble--inject-183"><path d="M90.77,265.09l-3.45-2a.43.43,0,0,1-.22-.2l-2.16-5.22,2.81-1.63-.08.25Z" style="fill:#92E3A9"></path><g style="opacity:0.4"><path d="M90.77,265.09l-3.45-2a.43.43,0,0,1-.22-.2l-2.16-5.22,2.81-1.63-.08.25Z"></path></g><path d="M87.32,256.3l3.28,8.62a.49.49,0,0,0,.89-.08L95,251.89Z" style="fill:#92E3A9"></path><path d="M87.32,256.3l3.28,8.62a.49.49,0,0,0,.89-.08L95,251.89Z" style="opacity:0.2"></path><path d="M140.11,136.14a5.08,5.08,0,0,0-2.29-4L136,131.09a5.08,5.08,0,0,0-4.59,0L73.42,164.55a5.05,5.05,0,0,0-2.29,4v87a5.05,5.05,0,0,0,2.29,4l1.87,1.08a5.06,5.06,0,0,0,4.58,0l57.8-33.4a5.31,5.31,0,0,0,2.45-4.24Z" style="fill:#92E3A9"></path><path d="M80,260.51l57.67-33.29a5.42,5.42,0,0,0,2.45-4.24V136.32c0-1.56-1.09-2.19-2.44-1.41L80,168.17a5.42,5.42,0,0,0-2.45,4.24V259.1C77.55,260.66,78.65,261.29,80,260.51Z" style="opacity:0.30000000000000004"></path><path d="M86.36,248.81l45-25.95a4.1,4.1,0,0,0,1.85-3.21v-72c0-1.19-.83-1.66-1.85-1.07L86.36,172.56a4.09,4.09,0,0,0-1.86,3.21v72C84.5,248.92,85.33,249.4,86.36,248.81Z" style="fill:#92E3A9"></path><path d="M71.13,255.57a5.05,5.05,0,0,0,2.29,4l1.87,1.08a5.09,5.09,0,0,0,4.19.19c-1.08.41-1.9-.21-1.9-1.51V172.25a4.75,4.75,0,0,1,.67-2.26l-6.45-3.73a4.64,4.64,0,0,0-.67,2.26Z" style="opacity:0.5"></path><path d="M140.1,136c0-1.11-1-1.92-2.43-1.1l-57.8,33.37A4.44,4.44,0,0,0,78.26,170l-6.45-3.72a4.51,4.51,0,0,1,1.61-1.71l57.94-33.46a5.08,5.08,0,0,1,4.59,0l1.87,1.08A5.11,5.11,0,0,1,140.1,136Z" style="opacity:0.1"></path></g><path d="M133.78,195.05c-6.14.18-22.55-.73-22.55-.73h0A32.48,32.48,0,0,1,94.48,165.9v-5.09a20.63,20.63,0,0,1,16-20.27,18.88,18.88,0,0,1,23.06,18.4c0,2.5.44,4.76,2.33,6.57a18,18,0,0,0,3.43,2.35,16,16,0,0,1,4.59,3.78,7.25,7.25,0,0,1,1.6,5.59,6.83,6.83,0,0,1-1.76,3.37.61.61,0,0,0-.13,1c1.64,2.54,2.32,5.93.94,8.63a8.25,8.25,0,0,1-4.23,3.7,16.62,16.62,0,0,1-5.59,1.13Z" style="fill:#263238"></path><path d="M103.65,197.48a12.74,12.74,0,0,1-7.88,10.24h0l-8.44,40.53-2.82,1.62-.1-48c2.46-12.22,6.68-13.64,14.25-15.83C98.65,186.07,104.8,190,103.65,197.48Z" style="fill:#b16668"></path><path d="M174,195.78a227.89,227.89,0,0,1-12.74,19.79c-1.14,1.51-4.31,5.69-6,6.11-2.11.52-3.91-1.15-5-1.92-3.83-2.66-23.64-22.36-23.64-22.36-6.17-8.6-4.61-14.08-3.78-14.08s7.16-1.66,12.58,3.63c4.09,4,18.09,18.47,18.09,18.47,3.31-3.88,5.48-5.8,8.78-9.7,1.6-1.89,4-3.93,4.16-6.54a23.79,23.79,0,0,0-.32-3.56,30,30,0,0,1,.51-8.13,1.08,1.08,0,0,1,.1-.35.79.79,0,0,1,.39-.33,1.43,1.43,0,0,1,1.62.65,3.85,3.85,0,0,1,.49,1.8,5,5,0,0,0,.4,1.84.86.86,0,0,0,.24.3.72.72,0,0,0,.38.1c.76,0,1.16-.81,1.43-1.41a26.36,26.36,0,0,0,1.58-4.33c.27-1,.74-2,1.08-3a3.09,3.09,0,0,1,.93-1.57,2.83,2.83,0,0,1,2.88.19,8.13,8.13,0,0,1,1.43.89,7.83,7.83,0,0,1,2.42,4.51,12.47,12.47,0,0,1-.39,6,22.83,22.83,0,0,1-3.79,7.55C176.5,192.15,175.1,193.87,174,195.78Z" style="fill:#b16668"></path><path d="M130.34,209.58l-.4,8.28,1.22,5.09-19.74,11.4-20,11.52,6.72-21.3-2.42-16.84h0c.26-.22,3.22-3.2,4.18-10.24.9-6.73-.78-10.74-1.3-11.41.27-.09,6.27-1.71,6.27-1.71l12.79-1,5.3-.08a31,31,0,0,1,10.27,13C136.41,204.07,130.34,209.58,130.34,209.58Z" style="fill:#fafafa"></path><path d="M102.39,234.13c.85-3.79,5.53-5.84,3.68-7.37S99.49,215.63,99,211.22a59.23,59.23,0,0,1,0-10.28h0c-1.17,5.73-3.64,8.23-3.87,8.43h0l2.42,16.84-6.72,21.3,17.38-10C104.2,237.55,101.9,236.3,102.39,234.13Z" style="opacity:0.1"></path><path d="M127.09,150.27c-.38,3.71-4.53,7.62-10.71,11.07s-10.84,3.32-10.84,3.32C121.19,156.56,125,146.8,125,146.8,127.09,147.71,127.09,150.27,127.09,150.27Z" style="fill:#92E3A9;opacity:0.9"></path><path d="M127.09,150.27c1.28,1.29,3,4.67,2.86,16-.15,9.58-3.23,12-4.79,12.66s-4.56.3-7.49-.17l0,4.67s4,4.5,3.72,7.13-4.29,4.58-11.82-1c-3.66-2.73-4.69-5.14-4.69-5.14l0-12.58s-1.71,1.68-4.64-.85c-2.43-2.09-3.26-5.63-1.4-7.55a4.19,4.19,0,0,1,6.68,1.28s4.66.14,10.85-3.31S126.7,154,127.09,150.27Z" style="fill:#b16668"></path><path d="M118.89,163.53a1.23,1.23,0,0,1-1.13,1.32,1.25,1.25,0,0,1-1.28-1.19,1.21,1.21,0,1,1,2.41-.13Z" style="fill:#263238"></path><path d="M119.05,171.76l3.2,1a1.63,1.63,0,0,1-2.06,1.16A1.76,1.76,0,0,1,119.05,171.76Z" style="fill:#9a4a4d"></path><path d="M129.09,160.14l-2.45-1.67a1.42,1.42,0,0,1,2-.43A1.55,1.55,0,0,1,129.09,160.14Z" style="fill:#263238"></path><path d="M128.55,163a1.2,1.2,0,1,1-1.27-1.19A1.23,1.23,0,0,1,128.55,163Z" style="fill:#263238"></path><polygon points="123.12 161.73 123.11 169.57 126.92 168.37 123.12 161.73" style="fill:#9a4a4d"></polygon><path d="M117.67,178.73c-3.08-.38-9.43-2.15-10.43-4.65a6.5,6.5,0,0,0,2.24,3.18c1.91,1.61,8.21,3.39,8.21,3.39Z" style="fill:#9a4a4d"></path><path d="M105.56,168.6a2.41,2.41,0,1,0,0-4.82Z" style="fill:#263238"></path></g><g id="freepik--character-bubble--inject-183"><g id="freepik--speach-bubble--inject-183"><path d="M188.26,328.62l-3.45-2a.48.48,0,0,1-.22-.2l-2.17-5.22,2.82-1.63-.09.25Z" style="fill:#92E3A9"></path><g style="opacity:0.4"><path d="M188.26,328.62l-3.45-2a.48.48,0,0,1-.22-.2l-2.17-5.22,2.82-1.63-.09.25Z"></path></g><path d="M184.81,319.83l3.28,8.62a.49.49,0,0,0,.89-.08l3.46-12.95Z" style="fill:#92E3A9"></path><path d="M184.81,319.83l3.28,8.62a.49.49,0,0,0,.89-.08l3.46-12.95Z" style="opacity:0.2"></path><path d="M237.59,199.67a5.05,5.05,0,0,0-2.29-4l-1.87-1.08a5.06,5.06,0,0,0-4.58,0l-57.94,33.46a5.06,5.06,0,0,0-2.3,4V319.1a5.06,5.06,0,0,0,2.3,4l1.86,1.08a5.08,5.08,0,0,0,4.59,0l57.8-33.41a5.29,5.29,0,0,0,2.44-4.23Z" style="fill:#92E3A9"></path><path d="M183.84,312.34l45-25.95a4.1,4.1,0,0,0,1.85-3.21v-72c0-1.18-.83-1.66-1.85-1.07l-45,26A4.1,4.1,0,0,0,182,239.3v72C182,312.45,182.82,312.93,183.84,312.34Z" style="fill:#fff;opacity:0.6000000000000001"></path><path d="M168.61,319.1a5.06,5.06,0,0,0,2.3,4l1.86,1.08a5.16,5.16,0,0,0,4.2.19c-1.08.41-1.9-.21-1.9-1.51v-87a4.65,4.65,0,0,1,.68-2.26l-6.46-3.73a4.75,4.75,0,0,0-.67,2.26Z" style="opacity:0.1"></path><path d="M237.59,199.54c0-1.11-1.06-1.92-2.44-1.1l-57.79,33.37a4.54,4.54,0,0,0-1.62,1.71l-6.45-3.72a4.61,4.61,0,0,1,1.62-1.71l57.94-33.47a5.13,5.13,0,0,1,4.58,0l1.88,1.08A5.16,5.16,0,0,1,237.59,199.54Z" style="fill:#fff;opacity:0.6000000000000001"></path></g><path d="M230.65,283.18V259.39c-2.45-7.54-7.62-13.52-15.67-12.76l7.43,18.66L228,286.83l.76-.44A4.1,4.1,0,0,0,230.65,283.18Z" style="fill:#37474f"></path><path d="M192.2,250.21c-1.89.84-3,3.57-3.72,5.5a30.53,30.53,0,0,0-2,9.35l.89,26.08-.32,19.34,41-23.65s-.56-18.64-.56-25.35c0-.3,0-.61,0-.92a15.1,15.1,0,0,0-11.9-13.87c-2.33-.53-16.24,1.27-16.24,1.27l-7.12,2.25Z" style="fill:#455a64"></path><path d="M215.81,274.65a15,15,0,0,0-.31-2.22,12.7,12.7,0,0,1-.36-2.46,16.32,16.32,0,0,1,.27-2.51c.44-2.82.58-6-1.52-8.24-.22-.24-.94-.23-.69.23a10.2,10.2,0,0,1,1.36,4.1,19.3,19.3,0,0,1-.34,4.36,12.66,12.66,0,0,0-.18,2.38,16.16,16.16,0,0,0,.38,2.17,20.56,20.56,0,0,1,.39,2.05c0,.34.07.69.08,1a5.35,5.35,0,0,0,0,1.2c.07.26.45.48.62.19A4.62,4.62,0,0,0,215.81,274.65Z" style="fill:#37474f"></path><path d="M213.09,261.56c-.08-.7-.37-1.91-1.21-2.08-.14,0-.2.12-.17.23a7.72,7.72,0,0,1,.42,1.11,7.36,7.36,0,0,1,.1,1.25,11.36,11.36,0,0,1-.33,2.6c-.3,1.17-1,2.23-1.3,3.4a6.44,6.44,0,0,0-.07,4.18c.06.14.26.23.34.07a7.79,7.79,0,0,0,.42-2.6,9.35,9.35,0,0,1,.53-2.16,17.44,17.44,0,0,0,1.15-3.17A10,10,0,0,0,213.09,261.56Z" style="fill:#37474f"></path><path d="M202.9,218.67a11.83,11.83,0,1,0,11.83-11.83A11.83,11.83,0,0,0,202.9,218.67Z" style="fill:#263238"></path><path d="M194.28,227.08s1.92,9,2.69,10.49a4.07,4.07,0,0,0,2.35,1.9l-.13-6.34Z" style="fill:#263238"></path><path d="M196.75,214.16a2.1,2.1,0,0,0-1.08-1.33,2.61,2.61,0,0,0-1.14-.15,5.06,5.06,0,0,0-3,1.12,3.83,3.83,0,0,0-1.37,2.82,5.06,5.06,0,0,0,2.05,3.7,2.45,2.45,0,0,0-1.24,2.89,4.47,4.47,0,0,0,1.42,2.13,11.21,11.21,0,0,0,1.74,1.56,3.27,3.27,0,0,0,1.39.33,23.34,23.34,0,0,1,2.34.27l-.45-5c-.12-1.36-.25-2.72-.37-4.08,0-.6-.13-1.21-.16-1.81a10.72,10.72,0,0,0-.14-2.4Z" style="fill:#263238"></path><path d="M199,227.5c-.72.43-1.75-1-2.65-1.89s-3.8-2.21-5.26.85,1.29,7.25,3.58,8c4,1.24,4.55-1.3,4.55-1.3l.29,16h0c4.92,6.31,18.57,5.82,12.88-.76v-5.69a25,25,0,0,0,5.33.27c2.91-.45,4.74-2.74,5.62-5.89,1.42-5.06,2-9.14.75-19.08-1.31-10.91-14-11-20.84-6.71S199,227.5,199,227.5Z" style="fill:#ffa8a7"></path><path d="M212,258.22a36.79,36.79,0,0,1-12.59-11.38l0-2.11s-5.85,1.15-7.86,3.08-2,2.67-2,2.67l2.88-.27s2-.5,5.47,2.65C202.36,256.91,209.43,260.22,212,258.22Z" style="fill:#37474f"></path><path d="M212.35,245.26v3.11a10.27,10.27,0,0,1,.84,3.7,22.71,22.71,0,0,1-1.17,6.15s1.16,0,2.7-1.74c2.59-2.88,1.92-7.71,1.69-9.21s-1.88-2.76-4.07-3.31Z" style="fill:#37474f"></path><path d="M195.25,218.17c-.2-1.06.39-2.09.26-3.15s-.81-1.55-1.11-2.44a4.38,4.38,0,0,1,.57-3.83,4.7,4.7,0,0,1,3.38-1.94,2.65,2.65,0,0,1,2,.52,3.47,3.47,0,0,1,.78-2.39,4.49,4.49,0,0,1,2.78-1.65,4.8,4.8,0,0,1,1.73.09c.16,0,1.5.42,1.47.6a3.78,3.78,0,0,1,3-3,4.32,4.32,0,0,1,4,1.53,4.31,4.31,0,0,1,4.25-.53,4.8,4.8,0,0,1,1.83,1.24,5.26,5.26,0,0,1,.66.89c.18.3.2.68.37.95a6.32,6.32,0,0,1,3.42-.2,4.93,4.93,0,0,1,3.64,4.34,4.5,4.5,0,0,1-.81,3.23,4,4,0,0,1-3.91,1.43,4.38,4.38,0,0,1-7.46,2.11,4.05,4.05,0,0,1-1.31,1.48,4.78,4.78,0,0,1-3.43.56,5.53,5.53,0,0,1-3-1.55,3.24,3.24,0,0,1-2.54,2.89,9.52,9.52,0,0,1-4.11-.14,4.07,4.07,0,0,1,.83,2.87,2.26,2.26,0,0,1-2,2,6.58,6.58,0,0,1,0,3.27,2,2,0,0,1-.63,1.13c-1.25.95-2.73-2.18-3.48-2.85-.46-.43-.43-1.41-.46-2s0-1.17,0-1.75a7.6,7.6,0,0,0,.17-1.12C195.9,219.86,195.42,219.05,195.25,218.17Z" style="fill:#263238"></path><path d="M194.38,213.63,190,211.28a2.41,2.41,0,0,1,3.31-1.1A2.62,2.62,0,0,1,194.38,213.63Z" style="fill:#263238"></path><path d="M212.35,242.68s-6.49-1.31-8.76-2.51a7.5,7.5,0,0,1-3.14-3.11,10.1,10.1,0,0,0,1.78,3.66c1.66,2.12,10.12,3.69,10.12,3.69Z" style="fill:#f28f8f"></path><path d="M212,225.88a1.3,1.3,0,1,1-1.3-1.36A1.33,1.33,0,0,1,212,225.88Z" style="fill:#263238"></path><path d="M210.65,221l-2.78,1.54a1.67,1.67,0,0,1,.65-2.22A1.55,1.55,0,0,1,210.65,221Z" style="fill:#263238"></path><path d="M211.76,234.86l3,1.12a1.56,1.56,0,0,1-2,1A1.66,1.66,0,0,1,211.76,234.86Z" style="fill:#f28f8f"></path><path d="M223.26,222.05l-2.54-2a1.53,1.53,0,0,1,2.2-.34A1.69,1.69,0,0,1,223.26,222.05Z" style="fill:#263238"></path><path d="M222.48,225.51a1.32,1.32,0,0,1-1.31,1.34,1.35,1.35,0,1,1,1.31-1.34Z" style="fill:#263238"></path><polygon points="215.85 224.27 216.27 232.1 220.36 230.7 215.85 224.27" style="fill:#f28f8f"></polygon><path d="M241.34,286h0l-1-.86h0a1.12,1.12,0,0,0-1-.11L228.5,288a4,4,0,0,0-2.43,2.28l-7.8,22.49a1,1,0,0,0,.14,1.15h0l1,.89h0a1.14,1.14,0,0,0,1,.12L231.31,312a4,4,0,0,0,2.43-2.27l7.8-22.49C241.73,286.63,241.63,286.21,241.34,286Z" style="fill:#455a64"></path><path d="M219.27,313.61l7.8-22.49a4,4,0,0,1,2.43-2.27l10.84-3c1-.27,1.54.3,1.2,1.29l-7.8,22.49a4,4,0,0,1-2.43,2.27l-10.84,2.95C219.47,315.17,218.93,314.6,219.27,313.61Z" style="fill:#37474f"></path><path d="M228.32,289.47a3.91,3.91,0,0,0-1.25,1.65l-7.8,22.49a1.07,1.07,0,0,0,.11,1.13l-1-.83h0a1,1,0,0,1-.15-1.15l7.8-22.5a3.75,3.75,0,0,1,1.15-1.56Z" style="fill:#263238"></path><path d="M173.61,308.2l10.09-11.57s27.56,4.35,30.65,4.4,5.35-2.87,7.34-5.42a5.35,5.35,0,0,1,3-1.49l-1.08,3.11c-.13.36,1.3.84,1.48.9a9.7,9.7,0,0,0,2.87.48,15.78,15.78,0,0,0,6.37-1.18,13.84,13.84,0,0,1,3.42-1.22.91.91,0,0,1,.61.07c.3.18.33.59.32.94a15.21,15.21,0,0,1-4.17,9.94,11.93,11.93,0,0,1-1.82,1.58c-3.67,2.55-8.21,2.52-12.47,2.23q-2.41-.15-4.83-.18C205.26,310.71,178.3,309.36,173.61,308.2Z" style="fill:#ffa8a7"></path><path d="M207.09,300.16l7.26.87c-1.42,1.72-2.47,7.38-1.2,9.73h-8.94C203.28,306.66,203.65,303,207.09,300.16Z" style="fill:#455a64"></path><path d="M185.26,294.63c-2.19-.37,6.8,1.48,12.24,2.53,4.86.94,9.15,1.51,9.59,3,0,0-2.88,6.23-2,10.35,0,0-.56.77-5.24,1s-24.32-1.1-26.94-2.6-3.57-3.4-2.89-7.6Z" style="fill:#37474f"></path><path d="M170,301.3c.05-.79,2.28-21.3,5-35.66,1.85-9.68,6.94-14,14.5-15.16l2.67-.42c4.71,3,1.08,17.77-3.64,25.84l-2.8,21.26-12.42,10.5C169.63,306.92,169.93,302.42,170,301.3Z" style="fill:#37474f"></path></g><g id="freepik--character-bubble--inject-183"><g id="freepik--speach-bubble--inject-183"><path d="M272.3,216.67l-3.45-2a.53.53,0,0,1-.22-.2l-2.17-5.22,2.82-1.63-.09.25Z" style="fill:#92E3A9"></path><g style="opacity:0.4"><path d="M272.3,216.67l-3.45-2a.53.53,0,0,1-.22-.2l-2.17-5.22,2.82-1.63-.09.25Z" style="fill:#fff"></path></g><path d="M268.85,207.88l3.28,8.62a.49.49,0,0,0,.89-.08l3.46-12.95Z" style="fill:#92E3A9"></path><path d="M268.85,207.88l3.28,8.62a.49.49,0,0,0,.89-.08l3.46-12.95Z" style="fill:#fff;opacity:0.6000000000000001"></path><path d="M321.63,87.72a5.05,5.05,0,0,0-2.29-4l-1.86-1.08a5.08,5.08,0,0,0-4.59,0L255,116.13a5.06,5.06,0,0,0-2.3,4v87.05a5.06,5.06,0,0,0,2.3,4l1.86,1.08a5.08,5.08,0,0,0,4.59,0l57.8-33.41a5.29,5.29,0,0,0,2.44-4.23Z" style="fill:#92E3A9"></path><path d="M261.53,212.1l57.67-33.29a5.41,5.41,0,0,0,2.44-4.24V87.91c0-1.56-1.09-2.19-2.44-1.41l-57.67,33.27a5.37,5.37,0,0,0-2.45,4.23v86.69C259.08,212.25,260.17,212.88,261.53,212.1Z" style="fill:#fff;opacity:0.6000000000000001"></path><path d="M267.88,200.39l45-25.95a4.1,4.1,0,0,0,1.85-3.21v-72c0-1.18-.83-1.66-1.85-1.07l-45,26a4.1,4.1,0,0,0-1.85,3.21v72C266,200.5,266.86,201,267.88,200.39Z" style="fill:#fff;opacity:0.6000000000000001"></path><path d="M252.65,207.15a5.06,5.06,0,0,0,2.3,4l1.86,1.08a5.16,5.16,0,0,0,4.2.19c-1.08.41-1.9-.21-1.9-1.52v-87a4.58,4.58,0,0,1,.67-2.26l-6.46-3.73a4.75,4.75,0,0,0-.67,2.26Z" style="fill:#fff;opacity:0.4"></path><path d="M321.63,87.59c0-1.11-1.06-1.92-2.43-1.1l-57.8,33.37a4.54,4.54,0,0,0-1.62,1.71l-6.45-3.72a4.61,4.61,0,0,1,1.62-1.71l57.94-33.47a5.13,5.13,0,0,1,4.58,0l1.88,1.08A5.13,5.13,0,0,1,321.63,87.59Z" style="fill:#fff;opacity:0.8"></path></g><circle cx="293.98" cy="109.37" r="20.07" transform="translate(120 370.36) rotate(-76.72)" style="fill:#263238"></circle><path d="M287.48,113.92s-3.27-1.35-3.23-3.38a1.75,1.75,0,0,1,2.1-1.73,16.66,16.66,0,0,0,3.13,3.26C290.72,112.81,288.48,114.44,287.48,113.92Z" style="fill:#92E3A9"></path><path d="M276.81,138.91c-4.81,1-8.33,2.31-10.78,14v46.37c0,1.16.8,1.64,1.8,1.09l1-.58L276.51,163c.32-.14,7.45-6,8.67-13.94C286.32,141.6,276.81,138.91,276.81,138.91Z" style="fill:#ffbda7"></path><path d="M305.11,134.63c2.94-.2,4.09.12,6.38,2.38a23.59,23.59,0,0,1,3.2,3.9v16.67l-9.12-.61Z" style="fill:#92E3A9"></path><path d="M305.11,134.63c2.94-.2,4.09.12,6.38,2.38a23.59,23.59,0,0,1,3.2,3.9v16.67l-9.12-.61Z" style="opacity:0.1"></path><path d="M311.49,171.61l1-8.62c1.24-.94,2-2.35,3-4.57a11.58,11.58,0,0,0-.28-7.95c-1.11-2.6-1.71-3.86-2.22-4.81a40.75,40.75,0,0,0-7.89-11l-5.88.35-12.59,1.51-9.83,2.42c7.09,10-.3,24.08-.3,24.08l3.67,12s-4.25,9.17-6.66,15.9a10.35,10.35,0,0,0,4.74,3.47l33.93-19.59C311.91,173.65,311.66,172.56,311.49,171.61Z" style="fill:#92E3A9"></path><path d="M286.14,160.55c0,.22,1.44,3.57,6.67,4.69s9.57-.69,11.9-3.53c0,0-2,7.16-11.79,5.26C286.44,165.72,286.14,160.55,286.14,160.55Z" style="opacity:0.05"></path><path d="M284.17,179.57a28.23,28.23,0,0,0,7.95.11c.65-.08,1.41-.26,1.69-.86.42-.91-.59-1.8-1.44-2.33a38.77,38.77,0,0,1-7.27-5.94,13.37,13.37,0,0,1-3.19-4.67c-1-2.79-.36-5.84-.15-8.79a31.5,31.5,0,0,0-.26-6.93,12.87,12.87,0,0,0-2.27-6c2.42,9.06-2.72,18.87-2.72,18.87l3.67,12s-.51,1.08-1.26,2.78A14,14,0,0,0,284.17,179.57Z" style="opacity:0.05"></path><path d="M311.49,171.61c-.48.64-3.46,4.39-12.2,5.42s-19.11-2-19.11-2-5.08,8.72-7.16,16.43c-.84,3.1-1.7,6.95-1.7,6.95l40.87-23.6Z" style="fill:#37474f"></path><path d="M276.81,138.91a8.61,8.61,0,0,0-4.9,1.37c-2.5,1.57-4,3.5-5.88,10.67v23.32s2.53,2.66,8.26,1.85c-.16-.27,3-13.72,3-13.72a26,26,0,0,0,2.95-14.51C279.61,141.39,276.81,138.91,276.81,138.91Z" style="fill:#92E3A9"></path><path d="M276.81,138.91a8.61,8.61,0,0,0-4.9,1.37c-2.5,1.57-4,3.5-5.88,10.67v23.32s2.53,2.66,8.26,1.85c-.16-.27,3-13.72,3-13.72a26,26,0,0,0,2.95-14.51C279.61,141.39,276.81,138.91,276.81,138.91Z" style="opacity:0.1"></path><path d="M308.61,101.84c1.29,1.29,3.05,4.68,2.87,16-.16,9.57-3.24,12-4.8,12.65s-4.56.3-7.48-.16l0,4.67s4,4.49,3.72,7.13-4.29,4.57-11.81-1c-3.67-2.73-4.57-4.17-4.57-4.17l-.15-13.55s-1.71,1.68-4.64-.85c-2.42-2.08-3.26-5.63-1.4-7.54a4.19,4.19,0,0,1,6.68,1.28s4.67.13,10.85-3.32S308.22,105.56,308.61,101.84Z" style="fill:#ffbda7"></path><path d="M286.64,136.49l-6.36,1.56s7.05,9,16.68,9.84,12.26-4.48,5.13-13.08l-2.86.17Z" style="fill:#ffbda7"></path><path d="M273.92,109.37c0,4.79-.75,14.82,7.32,20.06,7.29,4.74,10.85.73,10.85.73a4.57,4.57,0,0,1-3.82-.51c-1.82-1.3-1.85-3.47-1.85-6.3h0a4.43,4.43,0,0,1-6.88-1.11,3.07,3.07,0,0,1-.17-.31C277.06,117.56,273.92,109.37,273.92,109.37Z" style="fill:#263238"></path><path d="M300.41,115.1a1.2,1.2,0,1,1-1.27-1.18A1.24,1.24,0,0,1,300.41,115.1Z" style="fill:#263238"></path><path d="M300.58,123.34l3.2,1a1.64,1.64,0,0,1-2.07,1.16A1.74,1.74,0,0,1,300.58,123.34Z" style="fill:#f0997a"></path><path d="M310.61,111.72l-2.45-1.67a1.43,1.43,0,0,1,2-.43A1.56,1.56,0,0,1,310.61,111.72Z" style="fill:#263238"></path><path d="M310.07,114.55a1.21,1.21,0,0,1-1.13,1.31,1.23,1.23,0,0,1-1.27-1.18,1.21,1.21,0,0,1,1.13-1.31A1.23,1.23,0,0,1,310.07,114.55Z" style="fill:#263238"></path><polygon points="304.25 113.3 304.24 121.15 308.05 119.94 304.25 113.3" style="fill:#f0997a"></polygon><path d="M299.2,130.31c-3.09-.38-9.44-2.16-10.44-4.66a6.45,6.45,0,0,0,2.24,3.18c1.91,1.61,8.21,3.4,8.21,3.4Z" style="fill:#f0997a"></path><path d="M287.08,120.18a2.42,2.42,0,0,0,0-4.83Z" style="fill:#263238"></path></g></g><g id="freepik--social-icons--inject-183"><g id="freepik--Twitter--inject-183"><path d="M201.08,147.45l-3.76-7.07,3-8.73V126.3l-9.26,5.35V137l4,6.9a.62.62,0,0,0,.27.24h0Z" style="fill:#263238"></path><path d="M216.65,97.92a6.12,6.12,0,0,0-2.77-4.8l-2.26-1.31a6.16,6.16,0,0,0-5.55,0L182,105.72a6.14,6.14,0,0,0-2.78,4.81v27.82a6.14,6.14,0,0,0,2.78,4.81l2.26,1.31a6.16,6.16,0,0,0,5.55,0l7.11-4.11,4,6.88a.6.6,0,0,0,1.08-.1L206.14,135l7.74-4.46a6.15,6.15,0,0,0,2.77-4.81Z" style="fill:#37474f"></path><path d="M179.2,138.35a6.14,6.14,0,0,0,2.78,4.81l2.26,1.31a6.19,6.19,0,0,0,5.08.22c-1.31.49-2.31-.24-2.31-1.83V115a5.6,5.6,0,0,1,.82-2.74L180,107.79a5.6,5.6,0,0,0-.82,2.74Z" style="fill:#263238"></path><path d="M216.56,97.13c-.32-1.17-1.4-1.55-2.68-.81l-24.09,13.91a5.52,5.52,0,0,0-2,2.07L180,107.8a5.68,5.68,0,0,1,2-2.07l24.08-13.92a6.18,6.18,0,0,1,5.56,0l2.26,1.31A6.1,6.1,0,0,1,216.56,97.13Z" style="fill:#455a64"></path><path d="M206.44,122.51a24.46,24.46,0,0,0,2.14-10.18,18.66,18.66,0,0,0,1.76-3.45,12.44,12.44,0,0,1-2,1.91,9.3,9.3,0,0,0,1.55-3.5,13.88,13.88,0,0,1-2.24,2.44,2.13,2.13,0,0,0-2.57,0c-2.28,1.31-3.95,5.11-3.44,7.75-2.93,1.5-5.52,1.13-7.26-.71-.92,2.64-.48,5.15,1.09,5.64a2.51,2.51,0,0,1-1.6.33c0,2.2,1.13,3.56,2.83,3a4.36,4.36,0,0,1-1.59,1,2.07,2.07,0,0,0,3.29,1.36,12.1,12.1,0,0,1-5.22,5,7.07,7.07,0,0,0,5.41-1c3.48-2,6.16-5.65,7.87-9.58" style="fill:#f5f5f5"></path></g><g id="freepik--Instagram--inject-183"><path d="M283.09,289.91l-3.76-7.07,3-8.73v-5.34l-9.25,5.34v5.35l4,6.89a.52.52,0,0,0,.27.24h0Z" style="fill:#263238"></path><path d="M298.66,240.39a6.13,6.13,0,0,0-2.77-4.81l-2.26-1.31a6.16,6.16,0,0,0-5.55,0L264,248.18a6.13,6.13,0,0,0-2.78,4.81v27.83a6.13,6.13,0,0,0,2.78,4.81l2.26,1.3a6.1,6.1,0,0,0,5.55,0l7.11-4.11,4,6.88a.59.59,0,0,0,1.07-.1l4.2-12.12,7.74-4.46a6.13,6.13,0,0,0,2.77-4.81Z" style="fill:#37474f"></path><path d="M261.21,280.82a6.13,6.13,0,0,0,2.78,4.81l2.26,1.3a6.17,6.17,0,0,0,5.07.22c-1.3.5-2.3-.24-2.3-1.82V257.5a5.57,5.57,0,0,1,.82-2.73L262,250.26a5.69,5.69,0,0,0-.81,2.73Z" style="fill:#263238"></path><path d="M298.57,239.6c-.32-1.18-1.4-1.56-2.68-.82L271.8,252.7a5.44,5.44,0,0,0-2,2.07L262,250.26a5.6,5.6,0,0,1,2-2.07l24.08-13.91a6.16,6.16,0,0,1,5.55,0l2.27,1.3A6.14,6.14,0,0,1,298.57,239.6Z" style="fill:#455a64"></path><path d="M284.12,253.88c2.2-1.27,2.46-1.41,3.33-1.86a3.76,3.76,0,0,1,1.52-.5,1.37,1.37,0,0,1,.95.27,1.81,1.81,0,0,1,.61.91,5.9,5.9,0,0,1,.28,1.87c0,1.13.05,1.47.05,4.4s0,3.28-.05,4.46a9.7,9.7,0,0,1-.28,2.19,7.2,7.2,0,0,1-.61,1.62,6.21,6.21,0,0,1-.95,1.36,7,7,0,0,1-1.52,1.26c-.87.56-1.13.72-3.33,2s-2.45,1.41-3.32,1.86a3.76,3.76,0,0,1-1.52.5,1.35,1.35,0,0,1-.95-.27,1.75,1.75,0,0,1-.61-.91,5.8,5.8,0,0,1-.29-1.87c0-1.13,0-1.47,0-4.4s0-3.28,0-4.46a9.55,9.55,0,0,1,.29-2.19,6.75,6.75,0,0,1,.61-1.62,5.89,5.89,0,0,1,.95-1.36,7,7,0,0,1,1.52-1.26c.87-.56,1.13-.72,3.32-2m0-2c-2.23,1.29-2.51,1.46-3.38,2a9.19,9.19,0,0,0-2,1.67,9.68,9.68,0,0,0-1.46,2.1,11.07,11.07,0,0,0-.94,2.49,12.76,12.76,0,0,0-.39,2.88c0,1.19,0,1.57,0,4.54s0,3.35,0,4.49a7.74,7.74,0,0,0,.39,2.44,2.86,2.86,0,0,0,.94,1.4,2.11,2.11,0,0,0,1.46.42,5,5,0,0,0,2-.64c.87-.45,1.15-.6,3.38-1.89s2.52-1.46,3.39-2a9.19,9.19,0,0,0,2-1.67A9.33,9.33,0,0,0,291,268a10.65,10.65,0,0,0,1-2.49,13.43,13.43,0,0,0,.38-2.88c0-1.19,0-1.57,0-4.55s0-3.34,0-4.48a8.1,8.1,0,0,0-.38-2.44,2.81,2.81,0,0,0-1-1.4,2.07,2.07,0,0,0-1.45-.42,5,5,0,0,0-2,.64c-.87.45-1.15.6-3.39,1.89" style="fill:#fff"></path><path d="M284.12,257.23c-2.33,1.35-4.22,5-4.22,8.07s1.89,4.53,4.22,3.19,4.22-5,4.22-8.07-1.88-4.53-4.22-3.19m0,9.28c-1.51.88-2.74-.05-2.74-2.07a6.55,6.55,0,0,1,2.74-5.23c1.52-.88,2.74.05,2.74,2.07a6.52,6.52,0,0,1-2.74,5.23" style="fill:#fff"></path><path d="M289.5,253.91a2.34,2.34,0,0,1-1,1.88c-.54.32-1,0-1-.74a2.39,2.39,0,0,1,1-1.89c.55-.31,1,0,1,.75" style="fill:#fff"></path></g><g id="freepik--Facebook--inject-183"><path d="M130.92,302.61l-3.76-7.07,3-8.73v-5.35l-9.26,5.35v5.34l4,6.9a.68.68,0,0,0,.27.24h0Z" style="fill:#263238"></path><path d="M146.5,253.08a6.16,6.16,0,0,0-2.78-4.81l-2.26-1.3a6.1,6.1,0,0,0-5.55,0l-24.09,13.91a6.12,6.12,0,0,0-2.77,4.8v27.83a6.15,6.15,0,0,0,2.77,4.81l2.26,1.3a6.1,6.1,0,0,0,5.55,0l7.11-4.1,4,6.88a.59.59,0,0,0,1.07-.1l4.2-12.12,7.73-4.46a6.16,6.16,0,0,0,2.78-4.81Z" style="fill:#37474f"></path><path d="M109.05,293.51a6.15,6.15,0,0,0,2.77,4.81l2.26,1.3a6.23,6.23,0,0,0,5.08.23c-1.31.49-2.3-.25-2.3-1.83V270.19a5.69,5.69,0,0,1,.81-2.73L109.86,263a5.69,5.69,0,0,0-.81,2.73Z" style="fill:#263238"></path><path d="M146.41,252.29c-.33-1.18-1.4-1.55-2.68-.81l-24.1,13.91a5.5,5.5,0,0,0-1.95,2.07L109.87,263a5.58,5.58,0,0,1,1.95-2.07L135.9,247a6.18,6.18,0,0,1,5.56,0l2.27,1.31A6.17,6.17,0,0,1,146.41,252.29Z" style="fill:#455a64"></path><path d="M129.57,289.21l3.57-2.07V275.2l2.5-1.44.27-4.15-2.77,1.59v-2.28c0-.94.15-1.4.83-1.79l1.94-1.12v-4.15l-2.48,1.43a7.27,7.27,0,0,0-3.86,6.79v3.19l-1.86,1.07v4.05l1.86-1.08Z" style="fill:#fff"></path></g></g><g id="freepik--speach-bubble--inject-183"><g id="freepik--speach-bubble--inject-183"><path d="M399.78,143.75,396,136.68l3-8.73V122.6L389.79,128v5.34l4,6.9a.62.62,0,0,0,.27.24h0Z" style="fill:#263238"></path><path d="M430.06,95.63a6.19,6.19,0,0,0-2.77-4.85L425,89.46a6,6,0,0,0-5.55,0l-38.81,22.6a6.23,6.23,0,0,0-2.77,4.86v17.61a6.21,6.21,0,0,0,2.77,4.86l2.25,1.32a6.08,6.08,0,0,0,5.54,0l7.1-4.15,4,6.95a.59.59,0,0,0,1.07-.1l4.19-12.24,22.49-13.07a6.19,6.19,0,0,0,2.77-4.85Z" style="fill:#37474f"></path><path d="M377.91,134.11a6.12,6.12,0,0,0,2.77,4.8l2.26,1.31a6.19,6.19,0,0,0,5.08.22c-1.31.5-2.3-.24-2.3-1.83V121.15a5.69,5.69,0,0,1,.81-2.74l-7.81-4.51a5.69,5.69,0,0,0-.81,2.74Z" style="fill:#263238"></path><path d="M430,94.58c-.33-1.19-1.4-1.57-2.68-.83l-38.82,22.61a5.58,5.58,0,0,0-2,2.09l-7.79-4.55a5.56,5.56,0,0,1,1.95-2.09L419.48,89.2a6.1,6.1,0,0,1,5.55,0l2.26,1.32A6.21,6.21,0,0,1,430,94.58Z" style="fill:#455a64"></path><path d="M398,115.46a.21.21,0,0,1,.26,0,.45.45,0,0,1,.11.33v13.45a1.06,1.06,0,0,1-.11.45.67.67,0,0,1-.26.32l-1.09.63a.2.2,0,0,1-.26,0,.45.45,0,0,1-.11-.33v-5.49l-4.08,2.35v5.5a1.14,1.14,0,0,1-.11.46.68.68,0,0,1-.26.31l-1.09.63a.2.2,0,0,1-.26,0,.43.43,0,0,1-.1-.34V120.28a1.06,1.06,0,0,1,.1-.46.79.79,0,0,1,.26-.32l1.09-.63a.21.21,0,0,1,.26,0,.45.45,0,0,1,.11.33v5.35l4.08-2.35v-5.35a1.07,1.07,0,0,1,.11-.46.72.72,0,0,1,.26-.32Z" style="fill:#fafafa"></path><path d="M400,123.46a12.17,12.17,0,0,1,.23-2.32,11.3,11.3,0,0,1,.66-2.18,8.34,8.34,0,0,1,1-1.8,5.08,5.08,0,0,1,1.37-1.23,2.24,2.24,0,0,1,1.37-.36,1.68,1.68,0,0,1,1.05.54,3.12,3.12,0,0,1,.67,1.3,6.78,6.78,0,0,1,.24,1.89v.94a1.06,1.06,0,0,1-.11.45.67.67,0,0,1-.26.32l-4.51,2.6a1.84,1.84,0,0,0,.13.77.86.86,0,0,0,.34.42.76.76,0,0,0,.5.08,1.41,1.41,0,0,0,.58-.21,2.88,2.88,0,0,0,.71-.54,3.07,3.07,0,0,0,.44-.6,2.55,2.55,0,0,1,.25-.37A.75.75,0,0,1,405,123l1.08-.62a.22.22,0,0,1,.27,0,.42.42,0,0,1,.1.34,3.5,3.5,0,0,1-.21.87,6.79,6.79,0,0,1-.59,1.23,7.63,7.63,0,0,1-1,1.31,5.17,5.17,0,0,1-1.33,1.08,2.42,2.42,0,0,1-1.37.39,1.56,1.56,0,0,1-1-.55,3.51,3.51,0,0,1-.66-1.4A8.9,8.9,0,0,1,400,123.46Zm3.31-5a2.6,2.6,0,0,0-.67.56,3.73,3.73,0,0,0-.46.73,3.6,3.6,0,0,0-.29.79,4.52,4.52,0,0,0-.13.73l3.05-1.76a4.17,4.17,0,0,0-.1-.6,1.09,1.09,0,0,0-.24-.48.63.63,0,0,0-.45-.2A1.44,1.44,0,0,0,403.33,118.43Z" style="fill:#fafafa"></path><path d="M409.89,122.62a1.06,1.06,0,0,1-.11.45.67.67,0,0,1-.26.32l-1,.59a.2.2,0,0,1-.26,0,.45.45,0,0,1-.11-.33V110a1.11,1.11,0,0,1,.11-.46.64.64,0,0,1,.26-.31l1-.6a.21.21,0,0,1,.26,0,.46.46,0,0,1,.11.34Z" style="fill:#fafafa"></path><path d="M413.51,120.53a1.06,1.06,0,0,1-.11.45.72.72,0,0,1-.25.32l-1,.59a.2.2,0,0,1-.26,0,.45.45,0,0,1-.11-.33V107.89a1.11,1.11,0,0,1,.11-.46.64.64,0,0,1,.26-.31l1-.6a.2.2,0,0,1,.25,0,.45.45,0,0,1,.11.33Z" style="fill:#fafafa"></path><path d="M418.47,107.19a2.79,2.79,0,0,1,1.34-.42,1.63,1.63,0,0,1,1.05.38,2.65,2.65,0,0,1,.7,1,5,5,0,0,1,.3,1.61c0,.12,0,.28,0,.47v1.16c0,.19,0,.35,0,.48a9.52,9.52,0,0,1-.31,2,9.28,9.28,0,0,1-.69,1.85,7.82,7.82,0,0,1-1.05,1.57,4.92,4.92,0,0,1-1.34,1.13,2.59,2.59,0,0,1-1.34.42,1.57,1.57,0,0,1-1-.36,2.34,2.34,0,0,1-.7-1,5.29,5.29,0,0,1-.31-1.61c0-.12,0-.27,0-.45s0-.38,0-.57,0-.39,0-.59,0-.36,0-.49a8.87,8.87,0,0,1,.3-2,9.76,9.76,0,0,1,.71-1.87,7.45,7.45,0,0,1,1-1.58A5.3,5.3,0,0,1,418.47,107.19Zm1.64,3.74a3,3,0,0,0-.2-1,.88.88,0,0,0-.39-.45.71.71,0,0,0-.5-.06,2.31,2.31,0,0,0-.55.23,3.41,3.41,0,0,0-.55.41,2.79,2.79,0,0,0-.5.64,3.39,3.39,0,0,0-.39.9,5,5,0,0,0-.19,1.18c0,.12,0,.26,0,.43v1q0,.26,0,.39a2.69,2.69,0,0,0,.19,1,.87.87,0,0,0,.39.46.77.77,0,0,0,.5,0,2,2,0,0,0,.55-.23,2.91,2.91,0,0,0,.55-.41,3,3,0,0,0,.5-.63,3.7,3.7,0,0,0,.39-.9,5.57,5.57,0,0,0,.2-1.18c0-.11,0-.24,0-.42v-1C420.12,111.17,420.11,111,420.11,110.93Z" style="fill:#fafafa"></path><path d="M424.89,111.56a.2.2,0,0,1,.26,0,.45.45,0,0,1,.1.33v1.83a1.06,1.06,0,0,1-.1.46.79.79,0,0,1-.26.32l-1.16.67a.2.2,0,0,1-.26,0,.45.45,0,0,1-.11-.33V113a1.07,1.07,0,0,1,.11-.46.72.72,0,0,1,.26-.32Zm.3-2a1.11,1.11,0,0,1-.11.46.64.64,0,0,1-.26.31l-1,.6a.2.2,0,0,1-.25,0,.46.46,0,0,1-.11-.34v-9.23a1.07,1.07,0,0,1,.11-.46.72.72,0,0,1,.25-.32l1-.59a.2.2,0,0,1,.26,0,.45.45,0,0,1,.11.33Z" style="fill:#fafafa"></path></g></g><g id="freepik--Character--inject-183"><g id="freepik--character--inject-183"><path d="M406.32,211.66c7.15,0,10.74,2.37,13.73,8.9,2.86,6.25,12,24.12,11.52,28.51s-18.71,23.06-18.71,23.06l-5.21-6.22L419,247.25l-11.09-15.72Z" style="fill:#ffa8a7"></path><path d="M406.93,211.67s7-.72,10.29,3.42,6.48,12.58,6.48,12.58-3.26,9.38-11.92,10.54S406.93,211.67,406.93,211.67Z" style="fill:#455a64"></path><g id="freepik--character--inject-183"><path d="M388.85,404s.81,2.42,1.25,4.53c.35,1.68.84,4.49.25,5.75s-2.94,2.08-6.56,2.05c-2.34,0-6,1.55-8.5,2.92s-8,2-10.69,1.67c-3.22-.37-6.55-2.21-7.07-3.52s-1-3.11,7.76-5.85c.07,0,10.55-3.38,14.22-7.36Z" style="fill:#263238"></path><path d="M388.85,401l-9.34.19v.69A5,5,0,0,1,377.4,406c-4.54,3.15-12,5.56-12.11,5.58l-1.4.46c-1.51,1.2-.23,3.24,3.37,3.56s14.81-3.39,17.29-4.57a7.27,7.27,0,0,0,4.3-6.76C388.84,403.06,388.85,401,388.85,401Z" style="fill:#ffa8a7"></path><path d="M413.47,390.45c.66.27.79,1.52.82,4,0,1.88.35,5.17-1.91,5.76s-5.52.18-6.9-1.63c-1.73-2.25-2.89-4.23-5.37-7-2.15-2.4-4.49-4.64-5.29-7.95-.73-3,0-4.25,2.06-5.05s4-.15,6.84,2.21a13.18,13.18,0,0,0,2.55,1.33C408.17,382.71,412.81,390.19,413.47,390.45Z" style="fill:#263238"></path><path d="M413.53,388.15l-.08,3.05s-2.08,4-7.84,0c-.13-.3-.64-6.19-.64-6.19Z" style="fill:#ffa8a7"></path><path d="M406.27,382.13a12.63,12.63,0,0,1-2.55-1.33h0c-2.33-.73-7.22.12-5,3.43a26.07,26.07,0,0,0,6.91,7c2.61,1.26,3.52-.3,3.52-.3l-.92-7.14A5.58,5.58,0,0,0,406.27,382.13Z" style="fill:#ffa8a7"></path><path d="M419,346.6c0-10.05-2.25-14.48-2.25-14.48s1.11-13.83,2.25-26.77c2.72-30.77.13-32.23-4.23-42.76,0,0-37.39-5-39.8,11-5.27,35.16-3.53,59.31-3.18,66.45s1.2,11.33,3.36,26.27c1.63,11.37,4.41,35.53,4.41,35.53,5.18,2.94,9,7.12,9.34-.35s5.33-31.08,5.22-39.3a69,69,0,0,0-2.68-18s3.36-32.77,4.22-38c0,0,.95,10.45,1.3,17.58s2.31,14,4,27.27c1.5,11.51,4,35.56,4,35.56,5.18,2.93,8.11,8.06,8.58,1.53S419,356.42,419,346.6Z" style="fill:#ffa8a7"></path><path d="M395.61,306.21l2.15-13.51a30.56,30.56,0,0,0,12.2-4.18s-2.68,4-9.79,5.64L398,309.82l-.88,16.4Z" style="opacity:0.1"></path><polygon points="389.59 205.11 391.04 220.21 404.53 219.37 403.45 202.63 389.59 205.11" style="fill:#ffa8a7"></polygon><path d="M416.65,218.06c-1.37-4-4.16-6.34-10.33-6.4l-2.28.07c-.43,2.22-7.08,4-13.64,1.75-.93.23-3.47.69-4.9.88l-3.14.45c-4.78,1.54-6.89,9.7-7.35,22.63-.16,4.4.34,9.28,1.26,18.37-.51,13.2-1.35,24.3-1.35,24.3s7.94,3.35,24.16,1.25c14.52-1.87,19-9.24,18.49-8.17a99.18,99.18,0,0,0-5.32-16.47l-1-5.32C418.9,232.94,418.69,224,416.65,218.06Z" style="fill:#92E3A9"></path><path d="M411.25,251.4s-.9,6.24-12.52,7.41c-17,1.72-22.46-3-22.46-3l-.21,5c-1.9,10.4-7.07,36.11-6.75,47.1,0,0,3.62,1.38,6.64-4.89,0,0-.41,4.89,6.79,7.56,5.95,2.2,12.29-.79,14.15-1.21l.17-1.37s13.79,3.5,22.57-4.26c0,0,3.07-17.27,0-29.58-1.95-7.82-5.57-13.92-7.39-17.42Z" style="fill:#455a64"></path><path d="M411.21,308c-4,.43-8.85-1-9.07-2.63s2.75-14.4,2.75-14.4a19.57,19.57,0,0,0,10.83-7.3c-6.5,4.62-15.32,3.94-15.32,3.94L397.06,308A32.87,32.87,0,0,0,411.21,308Z" style="fill:#37474f"></path><path d="M411.25,251.4s-1.38,4.31-9.11,6.24c-15.15,3.78-25.87-1.83-25.87-1.83a33.91,33.91,0,0,0-.27,5.26s12.09,5.85,23.94,3,12.44-6.91,12.44-6.91S411.77,253.35,411.25,251.4Z" style="fill:#37474f"></path><path d="M385.5,214.36c-6.33.78-11.11,2.26-14.11,8-5.54,10.64-10.78,20.08-14.47,24-3.94,4.15-19.27,9.37-22.91,8.79s-7.06-4.39-8.93-3.32,2.45,3.8,2.23,4.7-7-.08-10.14-2.24-4.94,4-.91,8.7,11.47,5.89,19.71,4.27,23.64-5.37,29.61-10.86a81.51,81.51,0,0,0,15.14-18.17C391.05,225.53,385.5,214.36,385.5,214.36Z" style="fill:#ffa8a7"></path><path d="M386.48,214.22s-7.8-.58-11.56,3.19S367.76,228,367.76,228s2.24,7.21,13,10.26a15.82,15.82,0,0,0,5.76-7.91C388.44,224.73,387.86,216.36,386.48,214.22Z" style="fill:#455a64"></path><path d="M372.32,176.09a6.68,6.68,0,0,1,0-2.14,6.42,6.42,0,0,1,8.5-4.9,6.32,6.32,0,0,1,3.58-6.91,8,8,0,0,1,6.21.24,4.89,4.89,0,0,1,2.7,2.32,6.81,6.81,0,0,1,12.4,1.68c2.05-.46,4.95.45,5.87,2.49,1,2.32-.23,5.19.25,7.63.31,1.57,1,3.05,1.27,4.64a37.52,37.52,0,0,1,.51,5.39c.29,7.45-17,12.29-16.67,17.4l-9.22-11.22c0-.46-1.3-1.63-1.59-2-.56-.74-1.05-1.53-1.55-2.31-1.64-2.49-3.74-3.8-6.36-5.08a11.67,11.67,0,0,1-4.54-3.72A8.1,8.1,0,0,1,372.32,176.09Z" style="fill:#263238"></path><path d="M379.59,188.55s-3,4.44-2.6,4.91a7.2,7.2,0,0,0,2.29,1Z" style="fill:#f28f8f"></path><path d="M388.72,174.49c-2.91,1.47-7.93,4.2-9.22,14.71-1.32,10.79,1.12,14.54,2.62,16,1,1,6.22,1.3,8.94.47,3.41-1,10.78-4.62,14.24-10.19,4.06-6.55,4.9-15.29.21-18.71C398.9,171.91,391.17,173.24,388.72,174.49Z" style="fill:#ffa8a7"></path><path d="M387.44,174.17a11.61,11.61,0,0,0-3.38,1.94,4.56,4.56,0,0,0-1.19,1.54,3.56,3.56,0,0,0-.25,1.74,4.65,4.65,0,0,0,2.72,3.75,4.5,4.5,0,0,0-.73,3.76,8.91,8.91,0,0,0,2.66,3.83.5.5,0,0,0,.22.16.63.63,0,0,0,.48-.14c1.82-1.22,2.95-3.33,5.52-2.48,3.39,1.11,3.08,5.54.42,7.81a5.12,5.12,0,0,1-5.25,1.09s.09,5.45,4.83,7.6c0,0,5.26,1.69,10.11.13,1.78-2.27,4.78-5.17,7.24-7.76,8.12-8.53,8.59-20.93-3.39-24.85-.41-.13-.83-.26-1.25-.37a25.72,25.72,0,0,0-17.38,1.64C388.36,173.78,387.9,174,387.44,174.17Z" style="fill:#263238"></path><path d="M387.06,194.53a2.5,2.5,0,0,1-1.54-3.21,2.57,2.57,0,0,1,3.27-1.51Z" style="fill:#263238"></path></g></g></g></svg>